#!OML:ASF E:/inclinewalkrobotboard/Project1/Captureday1/Session1/subject1.ASF
:FULLY-SPECIFIED
:DEGREES
126
root 0 0 0 15.036713247125293 38.93398326430016 1.1033537486173528
lowerback 13.145146740182081 5.180209243306193 5.8481376931979305
upperback -4.127624198947184 7.198835250661108 2.153205725976797
thorax -11.321373430124591 3.362641897965106 -1.749588038880065
lowerneck -16.308618630311578 -8.557747106654396 -3.010617626106165
upperneck 25.61116229259879 -13.70543045001456 3.451549246895282
head 11.091845900054153 -6.054313301470228 0.17272292093424224
rclavicle -1.2323956227023278E-14 -7.945493145326715E-16
rhumerus -32.771954889862165 15.824335680818836 -83.45770200845874
rradius 32.421857641964664
rwrist 8.3902049919919
rhand -19.009629159306236 -4.376688310882594
rfingers 7.125019999999963
rthumb 7.375189993327335 -34.38290939057743
lclavicle 7.949044148547755E-16 4.7540936526725835E-15
lhumerus -47.99564405434429 19.96516628299554 66.14498338890587
lradius 51.13022636553395
lwrist -12.285704761570521
lhand -14.189020100877375 17.10420220551752
lfingers 7.125019999999912
lthumb 11.96835223791119 46.35043073280532
rfemur -6.936945858930471 20.06184846355285 37.878902449785386
rtibia -1.2870309920529408
rfoot 4.30775547845305 -27.395104979574874
rtoes -33.162455811182284
lfemur -40.733605907740234 -19.20119512802221 -20.545489051893718
ltibia 26.986962634295345
lfoot -28.934717751878193 -5.582359046104655
ltoes -43.800795073779845
127
root 0 0 0 15.039609857442017 38.92917601906262 1.1042607396767452
lowerback 13.144962570637134 5.180083241739719 5.848477954261383
upperback -4.128139544952995 7.198635356405682 2.153026427417849
thorax -11.321925588141408 3.362519154871695 -1.7500096289710227
lowerneck -16.30929735176504 -8.555440580475537 -3.0091913766550222
upperneck 25.611627866944474 -13.70178524982133 3.447088644064859
head 11.092091066670953 -6.052890330402492 0.17127520903013616
rclavicle -1.2319776502111904E-14 -7.888275528485772E-16
rhumerus -32.77011564846771 15.820802289960291 -83.45616853160003
rradius 32.405818170722384
rwrist 8.39183833152157
rhand -19.01072605499386 -4.383400006368335
rfingers 7.125019999999963
rthumb 7.374120656679133 -34.3897045829922
lclavicle 8.032973923298784E-16 4.750856883798511E-15
lhumerus -47.99673778438508 19.964245354407744 66.14440695648
lradius 51.1302136418533
lwrist -12.290317625155641
lhand -14.193134864668604 17.102724137422687
lfingers 7.125019999999912
lthumb 11.964369730239664 46.34912378666342
rfemur -6.97440798583634 20.072399650176955 37.885749269461826
rtibia -1.258997735390306
rfoot 4.2896686592067645 -27.391800505525573
rtoes -33.08313884786763
lfemur -40.71358923041035 -19.20739673162377 -20.549664313992267
ltibia 26.969405453683684
lfoot -28.93988186648708 -5.582639851557294
ltoes -43.79332000717884
128
root 0 0 0 15.040381900778598 38.91546132957821 1.0957210885260946
lowerback 13.134065210037486 5.183766221260347 5.855571451799742
upperback -4.133301339540039 7.204485674151339 2.1500999964033647
thorax -11.322101732758142 3.364804664649581 -1.7580809279486131
lowerneck -16.304047241094395 -8.539668611946828 -2.9896068579118174
upperneck 25.62796868168464 -13.680414912014863 3.435078121043587
head 11.09764851802115 -6.041375068531361 0.16624354970595845
rclavicle -1.232766410787021E-14 -7.750862778428258E-16
rhumerus -32.73334808107917 15.858327288747534 -83.47579439197949
rradius 32.47822854276035
rwrist 8.31631049328194
rhand -19.017673060145256 -4.391052043028857
rfingers 7.125019999999963
rthumb 7.366876479597045 -34.39789417969447
lclavicle 7.251108095220842E-16 4.731566912957665E-15
lhumerus -48.005950429384555 19.95164381371019 66.15972362374154
lradius 51.12637774184337
lwrist -12.271354722605345
lhand -14.177771579982526 17.110673443828397
lfingers 7.125019999999912
lthumb 11.97936724213417 46.3563795347257
rfemur -6.988569585315547 20.1108952667918 37.905591778525135
rtibia -1.2798538190297464
rfoot 4.221738274486139 -27.388543475550883
rtoes -33.0584371475842
lfemur -40.79895082280693 -19.177232171517826 -20.534812808675838
ltibia 27.071622610369626
lfoot -28.99577908249603 -5.577881463451471
ltoes -43.82333637432728
129
root 0 0 0 15.03903884518775 38.92508307660731 1.098284934297133
lowerback 13.131973025942845 5.183459758372787 5.854576190579045
upperback -4.133981012738249 7.204014347686173 2.1504745596265575
thorax -11.321502950678575 3.364679615863625 -1.7569124164612107
lowerneck -16.305145119591902 -8.546441571156763 -2.9986076745854193
upperneck 25.624575470276632 -13.688900725741782 3.43748199813327
head 11.096446892889679 -6.046031693647725 0.16759878788847304
rclavicle -1.2334383002006475E-14 -7.859682726234241E-16
rhumerus -32.74155812776589 15.839659792375542 -83.46023840995542
rradius 32.44989115325013
rwrist 8.3512092910618
rhand -19.0169579128634 -4.388951533928189
rfingers 7.125019999999963
rthumb 7.367913511053691 -34.395802505345884
lclavicle 7.453180224004764E-16 4.735711425159014E-15
lhumerus -47.99620960943788 19.958623609514845 66.15120225760559
lradius 51.138273077896855
lwrist -12.278882712656692
lhand -14.191584584191364 17.107073789575452
lfingers 7.125019999999912
lthumb 11.965951134586515 46.353591346423656
rfemur -6.984898961788624 20.10156054711576 37.90182633309256
rtibia -1.2670352389402133
rfoot 4.250048393492094 -27.396160248181374
rtoes -32.99956677145174
lfemur -40.690657685600904 -19.21788951823591 -20.539157232743825
ltibia 26.921675110620995
lfoot -28.988796343410385 -5.534736616130333
ltoes -43.81477461678993
